HIERARCHY
ROOT Hips
{
  OFFSET 0.000 63.810 0.000
  CHANNELS 6 Xposition Yposition Zposition Zrotation Xrotation Yrotation
  JOINT LeftUpLeg
  {
    OFFSET 7.326 0.095 3.142
    CHANNELS 6 Xposition Yposition Zposition Zrotation Xrotation Yrotation
    JOINT LeftLeg
    {
      OFFSET 0.000 -33.006 0.000
      CHANNELS 6 Xposition Yposition Zposition Zrotation Xrotation Yrotation
      JOINT LeftFoot
      {
        OFFSET 0.000 -30.899 0.000
        CHANNELS 6 Xposition Yposition Zposition Zrotation Xrotation Yrotation
        End Site
        {
          OFFSET 0.000 0.000 9.094
        }
      }
    }
  }
  JOINT RightUpLeg
  {
    OFFSET -7.326 0.095 3.142
    CHANNELS 6 Xposition Yposition Zposition Zrotation Xrotation Yrotation
    JOINT RightLeg
    {
      OFFSET 0.000 -33.006 0.000
      CHANNELS 6 Xposition Yposition Zposition Zrotation Xrotation Yrotation
      JOINT RightFoot
      {
        OFFSET 0.000 -30.899 0.000
        CHANNELS 6 Xposition Yposition Zposition Zrotation Xrotation Yrotation
        End Site
        {
          OFFSET 0.000 0.000 9.094
        }
      }
    }
  }
  JOINT Spine
  {
    OFFSET 0.000 29.620 0.000
    CHANNELS 6 Xposition Yposition Zposition Zrotation Xrotation Yrotation
    JOINT Spine1
    {
      OFFSET 0.000 21.345 0.000
      CHANNELS 6 Xposition Yposition Zposition Zrotation Xrotation Yrotation
      JOINT LeftShoulder
      {
        OFFSET 1.527 -0.228 0.129
        CHANNELS 6 Xposition Yposition Zposition Zrotation Xrotation Yrotation
        JOINT LeftArm
        {
          OFFSET 14.091 0.000 0.000
          CHANNELS 6 Xposition Yposition Zposition Zrotation Xrotation Yrotation
          JOINT LeftForeArm
          {
            OFFSET 23.859 0.000 0.000
            CHANNELS 6 Xposition Yposition Zposition Zrotation Xrotation Yrotation
            JOINT LeftHand
            {
              OFFSET 20.733 0.000 0.000
              CHANNELS 6 Xposition Yposition Zposition Zrotation Xrotation Yrotation
              JOINT LeftHandThumb1
              {
                OFFSET 4.877 -1.044 3.608
                CHANNELS 6 Xposition Yposition Zposition Zrotation Xrotation Yrotation
                JOINT LeftHandThumb2
                {
                  OFFSET 2.665 0.000 0.000
                  CHANNELS 6 Xposition Yposition Zposition Zrotation Xrotation Yrotation
                  JOINT LeftHandThumb3
                  {
                    OFFSET 2.543 -0.000 0.000
                    CHANNELS 6 Xposition Yposition Zposition Zrotation Xrotation Yrotation
                    End Site
                    {
                      OFFSET 2.667 -0.000 0.000
                    }
                  }
                }
              }
              JOINT LeftHandIndex1
              {
                OFFSET 9.232 -0.301 2.144
                CHANNELS 6 Xposition Yposition Zposition Zrotation Xrotation Yrotation
                JOINT LeftHandIndex2
                {
                  OFFSET 4.225 -0.000 -0.000
                  CHANNELS 6 Xposition Yposition Zposition Zrotation Xrotation Yrotation
                  JOINT LeftHandIndex3
                  {
                    OFFSET 2.654 0.000 0.000
                    CHANNELS 6 Xposition Yposition Zposition Zrotation Xrotation Yrotation
                    End Site
                    {
                      OFFSET 1.958 -0.000 -0.000
                    }
                  }
                }
              }
              JOINT LeftHandMiddle1
              {
                OFFSET 8.920 -0.000 0.000
                CHANNELS 6 Xposition Yposition Zposition Zrotation Xrotation Yrotation
                JOINT LeftHandMiddle2
                {
                  OFFSET 4.863 0.000 0.000
                  CHANNELS 6 Xposition Yposition Zposition Zrotation Xrotation Yrotation
                  JOINT LeftHandMiddle3
                  {
                    OFFSET 2.765 0.000 0.000
                    CHANNELS 6 Xposition Yposition Zposition Zrotation Xrotation Yrotation
                    End Site
                    {
                      OFFSET 2.006 -0.000 0.000
                    }
                  }
                }
              }
              JOINT LeftHandRing1
              {
                OFFSET 8.689 -0.126 -2.087
                CHANNELS 6 Xposition Yposition Zposition Zrotation Xrotation Yrotation
                JOINT LeftHandRing2
                {
                  OFFSET 4.538 0.000 0.000
                  CHANNELS 6 Xposition Yposition Zposition Zrotation Xrotation Yrotation
                  JOINT LeftHandRing3
                  {
                    OFFSET 2.305 0.000 0.000
                    CHANNELS 6 Xposition Yposition Zposition Zrotation Xrotation Yrotation
                    End Site
                    {
                      OFFSET 1.923 0.000 0.000
                    }
                  }
                }
              }
              JOINT LeftHandPinky1
              {
                OFFSET 8.391 -0.817 -3.758
                CHANNELS 6 Xposition Yposition Zposition Zrotation Xrotation Yrotation
                JOINT LeftHandPinky2
                {
                  OFFSET 3.044 -0.000 -0.000
                  CHANNELS 6 Xposition Yposition Zposition Zrotation Xrotation Yrotation
                  JOINT LeftHandPinky3
                  {
                    OFFSET 1.975 -0.000 0.000
                    CHANNELS 6 Xposition Yposition Zposition Zrotation Xrotation Yrotation
                    End Site
                    {
                      OFFSET 1.667 -0.000 0.000
                    }
                  }
                }
              }
            }
          }
        }
      }
      JOINT RightShoulder
      {
        OFFSET -1.527 -0.228 0.129
        CHANNELS 6 Xposition Yposition Zposition Zrotation Xrotation Yrotation
        JOINT RightArm
        {
          OFFSET -14.091 0.000 0.000
          CHANNELS 6 Xposition Yposition Zposition Zrotation Xrotation Yrotation
          JOINT RightForeArm
          {
            OFFSET -23.859 0.000 0.000
            CHANNELS 6 Xposition Yposition Zposition Zrotation Xrotation Yrotation
            JOINT RightHand
            {
              OFFSET -20.733 0.000 0.000
              CHANNELS 6 Xposition Yposition Zposition Zrotation Xrotation Yrotation
              JOINT RightHandThumb1
              {
                OFFSET -4.877 -1.044 3.608
                CHANNELS 6 Xposition Yposition Zposition Zrotation Xrotation Yrotation
                JOINT RightHandThumb2
                {
                  OFFSET -2.665 0.000 0.000
                  CHANNELS 6 Xposition Yposition Zposition Zrotation Xrotation Yrotation
                  JOINT RightHandThumb3
                  {
                    OFFSET -2.543 0.000 0.000
                    CHANNELS 6 Xposition Yposition Zposition Zrotation Xrotation Yrotation
                    End Site
                    {
                      OFFSET -2.667 0.000 0.000
                    }
                  }
                }
              }
              JOINT RightHandIndex1
              {
                OFFSET -9.232 -0.301 2.144
                CHANNELS 6 Xposition Yposition Zposition Zrotation Xrotation Yrotation
                JOINT RightHandIndex2
                {
                  OFFSET -4.225 0.000 0.000
                  CHANNELS 6 Xposition Yposition Zposition Zrotation Xrotation Yrotation
                  JOINT RightHandIndex3
                  {
                    OFFSET -2.654 0.000 0.000
                    CHANNELS 6 Xposition Yposition Zposition Zrotation Xrotation Yrotation
                    End Site
                    {
                      OFFSET -1.958 0.000 0.000
                    }
                  }
                }
              }
              JOINT RightHandMiddle1
              {
                OFFSET -8.920 0.000 -0.000
                CHANNELS 6 Xposition Yposition Zposition Zrotation Xrotation Yrotation
                JOINT RightHandMiddle2
                {
                  OFFSET -4.863 0.000 0.000
                  CHANNELS 6 Xposition Yposition Zposition Zrotation Xrotation Yrotation
                  JOINT RightHandMiddle3
                  {
                    OFFSET -2.765 0.000 0.000
                    CHANNELS 6 Xposition Yposition Zposition Zrotation Xrotation Yrotation
                    End Site
                    {
                      OFFSET -2.006 0.000 -0.000
                    }
                  }
                }
              }
              JOINT RightHandRing1
              {
                OFFSET -8.689 -0.126 -2.087
                CHANNELS 6 Xposition Yposition Zposition Zrotation Xrotation Yrotation
                JOINT RightHandRing2
                {
                  OFFSET -4.538 0.000 0.000
                  CHANNELS 6 Xposition Yposition Zposition Zrotation Xrotation Yrotation
                  JOINT RightHandRing3
                  {
                    OFFSET -2.305 -0.000 0.000
                    CHANNELS 6 Xposition Yposition Zposition Zrotation Xrotation Yrotation
                    End Site
                    {
                      OFFSET -1.923 0.000 -0.000
                    }
                  }
                }
              }
              JOINT RightHandPinky1
              {
                OFFSET -8.391 -0.817 -3.758
                CHANNELS 6 Xposition Yposition Zposition Zrotation Xrotation Yrotation
                JOINT RightHandPinky2
                {
                  OFFSET -3.044 -0.000 0.000
                  CHANNELS 6 Xposition Yposition Zposition Zrotation Xrotation Yrotation
                  JOINT RightHandPinky3
                  {
                    OFFSET -1.975 0.000 0.000
                    CHANNELS 6 Xposition Yposition Zposition Zrotation Xrotation Yrotation
                    End Site
                    {
                      OFFSET -1.667 -0.000 -0.000
                    }
                  }
                }
              }
            }
          }
        }
      }
      JOINT Neck
      {
        OFFSET 0.000 0.689 0.000
        CHANNELS 6 Xposition Yposition Zposition Zrotation Xrotation Yrotation
        JOINT Head
        {
          OFFSET 0.000 6.392 0.000
          CHANNELS 6 Xposition Yposition Zposition Zrotation Xrotation Yrotation
          End Site
          {
            OFFSET 0.000 13.671 0.000
          }
        }
      }
    }
  }
}
MOTION
Frames:	4
Frame Time:	0.033333
6.61794 69.63124 -171.20557 0.50182 -4.23288 -1.52171 8.03493 -0.33594 3.62212 13.48302 0.02656 20.19975 0.00039 -29.67442 -0.00146 0.97461 13.08661 -20.61719 0.00345 -32.80303 -0.00749 0.33971 4.29756 -4.49511 -8.13017 -0.25327 3.62589 -15.85577 -2.83185 -16.86507 -0.00439 -28.83195 -0.00568 4.38180 14.50507 18.82404 -0.00175 -33.81900 -0.00791 -0.27564 7.12310 2.25228 -0.00114 30.36916 -0.00216 0.01558 1.74608 0.43121 -0.00239 21.78072 -0.00070 -0.08339 2.17895 0.42140 1.23242 -0.46406 0.33736 -19.19703 4.95300 -13.91034 12.03709 0.00136 -0.00004 -31.71655 -2.46772 -43.00349 24.60800 -0.01441 -0.00500 -2.82727 -7.98997 -67.38425 19.27815 -0.04374 -0.00351 3.82277 -31.80200 -14.79421 4.87701 -1.04401 3.60801 -24.66912 4.20515 -9.07632 2.66500 0.00001 0.00000 0.00000 -0.00000 9.99642 2.54301 -0.00001 0.00001 0.00000 -0.00000 15.00302 9.23200 -0.30102 2.14399 -20.00255 -0.00000 -0.00000 4.22500 -0.00001 -0.00001 -25.00278 -0.00000 -0.00000 2.65399 0.00000 0.00001 -29.90809 2.50022 -4.33020 8.92000 -0.00001 0.00000 -20.00255 -0.00000 -0.00000 4.86301 0.00000 0.00000 -25.00278 -0.00000 -0.00000 2.76501 0.00000 0.00001 -29.90809 2.50022 -4.33020 8.68900 -0.12600 -2.08700 -20.00255 -0.00000 -0.00000 4.53800 0.00000 0.00000 -25.00278 -0.00000 -0.00000 2.30501 0.00000 0.00001 -29.90809 2.50022 -4.33020 8.39100 -0.81701 -3.75800 -20.00255 -0.00000 -0.00000 3.04401 -0.00001 -0.00001 -25.00278 -0.00000 -0.00000 1.97501 -0.00001 0.00001 -29.90809 2.50022 -4.33020 -1.16525 -0.45125 0.34512 17.54972 4.67915 14.36899 -11.70862 -0.24269 -0.00264 34.17588 -2.37305 39.59322 -25.84201 0.00596 -0.00870 -12.72230 -4.79665 60.78592 -18.77567 0.02810 -0.03735 -10.05466 -9.69313 16.35881 -4.87701 -1.04400 3.60800 24.66811 4.21160 9.07630 -2.66500 0.00000 0.00000 0.00000 0.00000 -9.99648 -2.54301 0.00000 0.00001 0.00000 0.00000 -15.00314 -9.23200 -0.30100 2.14400 20.00272 0.00000 -0.00000 -4.22500 0.00000 0.00000 25.00295 0.00000 -0.00000 -2.65402 0.00000 0.00001 29.90825 2.49955 4.33024 -8.92001 0.00000 -0.00001 20.00272 0.00000 -0.00000 -4.86301 0.00000 0.00000 25.00295 0.00000 -0.00000 -2.76500 0.00000 0.00001 29.90825 2.49955 4.33024 -8.68900 -0.12600 -2.08701 20.00272 0.00000 -0.00000 -4.53801 0.00001 0.00001 25.00295 0.00000 -0.00000 -2.30500 -0.00001 0.00001 29.90825 2.49955 4.33024 -8.39101 -0.81700 -3.75800 20.00272 0.00000 -0.00000 -3.04399 -0.00001 0.00001 25.00295 0.00000 -0.00000 -1.97501 0.00000 0.00001 29.90825 2.49955 4.33024 -0.00065 0.69032 0.00027 0.00012 -0.00001 0.00002 0.01274 6.29095 0.01540 4.34306 7.13993 -7.45827 
6.59222 69.58360 -171.17018 0.41705 -4.21105 -1.53658 8.01892 -0.33666 3.62188 13.72780 0.00453 20.20370 0.00037 -29.68161 -0.00145 0.80135 13.22830 -20.67382 0.00343 -32.75750 -0.00748 0.32758 4.24268 -4.39043 -8.11866 -0.23888 3.62562 -15.72129 -2.82625 -16.93587 -0.00438 -28.81605 -0.00567 4.29210 14.48912 18.85646 -0.00179 -33.81067 -0.00790 -0.28579 7.09489 2.34360 -0.00111 30.36408 -0.00212 0.04930 1.76059 0.33020 -0.00236 21.79004 -0.00065 -0.09775 2.19567 0.24253 1.23117 -0.45999 0.33240 -19.08980 4.87597 -13.78334 12.04604 0.00084 -0.00017 -32.11606 -2.22891 -42.55376 24.66870 -0.01617 -0.00436 -3.85607 -7.96960 -67.34303 19.20427 -0.03726 0.00493 4.49625 -30.52954 -14.90159 4.87701 -1.04401 3.60801 -24.66904 4.20523 -9.07640 2.66500 0.00001 0.00000 0.00000 -0.00000 9.99649 2.54301 -0.00001 0.00001 0.00000 -0.00000 15.00295 9.23200 -0.30102 2.14399 -20.00250 -0.00000 -0.00000 4.22500 -0.00001 -0.00001 -25.00271 -0.00000 -0.00000 2.65399 0.00000 0.00001 -29.90804 2.50015 -4.33026 8.92000 -0.00001 0.00000 -20.00250 -0.00000 -0.00000 4.86301 0.00000 0.00000 -25.00271 -0.00000 -0.00000 2.76501 0.00000 0.00001 -29.90804 2.50015 -4.33026 8.68900 -0.12600 -2.08700 -20.00250 -0.00000 -0.00000 4.53800 0.00000 0.00000 -25.00271 -0.00000 -0.00000 2.30501 0.00000 0.00001 -29.90804 2.50015 -4.33026 8.39100 -0.81701 -3.75800 -20.00250 -0.00000 -0.00000 3.04401 -0.00001 -0.00001 -25.00271 -0.00000 -0.00000 1.97501 -0.00001 0.00001 -29.90804 2.50015 -4.33026 -1.14165 -0.35990 0.33960 14.12424 3.85079 14.80699 -11.24422 -0.24823 -0.00176 38.79321 -2.06896 38.47218 -25.82161 -0.00524 -0.00235 -12.78209 -3.96314 58.94251 -18.77092 0.00638 -0.03743 -10.42324 -6.34324 19.29387 -4.87701 -1.04400 3.60800 24.66805 4.21153 9.07638 -2.66500 0.00000 0.00000 0.00000 0.00000 -9.99657 -2.54301 0.00000 0.00001 0.00000 0.00000 -15.00307 -9.23200 -0.30100 2.14400 20.00267 0.00000 -0.00000 -4.22500 0.00000 0.00000 25.00290 0.00000 -0.00000 -2.65402 0.00000 0.00001 29.90820 2.49943 4.33031 -8.92001 0.00000 -0.00001 20.00267 0.00000 -0.00000 -4.86301 0.00000 0.00000 25.00290 0.00000 -0.00000 -2.76500 0.00000 0.00001 29.90820 2.49943 4.33031 -8.68900 -0.12600 -2.08701 20.00267 0.00000 -0.00000 -4.53801 0.00001 0.00001 25.00290 0.00000 -0.00000 -2.30500 -0.00001 0.00001 29.90820 2.49943 4.33031 -8.39101 -0.81700 -3.75800 20.00267 0.00000 -0.00000 -3.04399 -0.00001 0.00001 25.00290 0.00000 -0.00000 -1.97501 0.00000 0.00001 29.90820 2.49943 4.33031 -0.00065 0.69044 0.00027 0.00012 -0.00001 0.00002 0.01020 6.29153 0.01508 4.47236 6.90975 -7.12573 
6.56951 69.55177 -171.14120 0.37094 -4.21991 -1.53907 8.00407 -0.34325 3.62165 13.91743 -0.00477 20.20990 0.00035 -29.71546 -0.00143 0.65768 13.38410 -20.73307 0.00342 -32.70426 -0.00747 0.31549 4.17132 -4.30029 -8.10830 -0.22447 3.62535 -15.62310 -2.79697 -16.97051 -0.00437 -28.81718 -0.00565 4.20478 14.47892 18.86626 -0.00182 -33.79747 -0.00789 -0.29355 7.05492 2.42019 -0.00107 30.36840 -0.00209 0.10914 1.71051 0.27993 -0.00234 21.81246 -0.00059 -0.07090 2.14848 0.15454 1.22744 -0.45601 0.32489 -19.04813 4.80700 -13.64248 12.02769 0.00033 -0.00031 -32.54951 -1.86089 -42.18142 24.88096 -0.01752 -0.00374 -4.76627 -7.90600 -67.31931 19.15268 -0.03115 0.00896 5.27333 -29.40976 -13.84453 4.87701 -1.04401 3.60801 -24.66897 4.20530 -9.07647 2.66500 0.00001 0.00000 0.00000 -0.00000 9.99657 2.54301 -0.00001 0.00001 0.00000 -0.00000 15.00289 9.23200 -0.30102 2.14399 -20.00244 -0.00000 -0.00000 4.22500 -0.00001 -0.00001 -25.00265 -0.00000 -0.00000 2.65399 0.00000 0.00001 -29.90799 2.50009 -4.33032 8.92000 -0.00001 0.00000 -20.00244 -0.00000 -0.00000 4.86301 0.00000 0.00000 -25.00265 -0.00000 -0.00000 2.76501 0.00000 0.00001 -29.90799 2.50009 -4.33032 8.68900 -0.12600 -2.08700 -20.00244 -0.00000 -0.00000 4.53800 0.00000 0.00000 -25.00265 -0.00000 -0.00000 2.30501 0.00000 0.00001 -29.90799 2.50009 -4.33032 8.39100 -0.81701 -3.75800 -20.00244 -0.00000 -0.00000 3.04401 -0.00001 -0.00001 -25.00265 -0.00000 -0.00000 1.97501 -0.00001 0.00001 -29.90799 2.50009 -4.33032 -1.13709 -0.30200 0.32953 12.12884 3.30210 14.87455 -11.03326 -0.20427 -0.00149 41.99604 -1.83755 37.76588 -25.82368 -0.01338 0.00401 -12.64772 -3.15678 57.46408 -18.80643 -0.01228 -0.03465 -10.55046 -3.56981 21.21025 -4.87701 -1.04400 3.60800 24.66800 4.21146 9.07646 -2.66500 0.00000 0.00000 0.00000 0.00000 -9.99665 -2.54301 0.00000 0.00001 0.00000 0.00000 -15.00301 -9.23200 -0.30100 2.14400 20.00263 0.00000 -0.00000 -4.22500 0.00000 0.00000 25.00285 0.00000 -0.00000 -2.65402 0.00000 0.00001 29.90815 2.49932 4.33038 -8.92001 0.00000 -0.00001 20.00263 0.00000 -0.00000 -4.86301 0.00000 0.00000 25.00285 0.00000 -0.00000 -2.76500 0.00000 0.00001 29.90815 2.49932 4.33038 -8.68900 -0.12600 -2.08701 20.00263 0.00000 -0.00000 -4.53801 0.00001 0.00001 25.00285 0.00000 -0.00000 -2.30500 -0.00001 0.00001 29.90815 2.49932 4.33038 -8.39101 -0.81700 -3.75800 20.00263 0.00000 -0.00000 -3.04399 -0.00001 0.00001 25.00285 0.00000 -0.00000 -1.97501 0.00000 0.00001 29.90815 2.49932 4.33038 -0.00065 0.69056 0.00027 0.00012 -0.00001 0.00002 0.00768 6.29990 0.01482 4.31929 7.16899 -6.90472 
6.55179 69.52953 -171.11784 0.36245 -4.25796 -1.54273 7.99214 -0.35406 3.62142 14.05497 -0.00012 20.23264 0.00033 -29.76980 -0.00142 0.53291 13.56292 -20.79483 0.00341 -32.64214 -0.00747 0.30179 4.08737 -4.19738 -8.09925 -0.21198 3.62508 -15.55325 -2.74938 -16.95653 -0.00436 -28.85596 -0.00564 4.10801 14.48007 18.85641 -0.00185 -33.75106 -0.00788 -0.30160 6.99386 2.50754 -0.00103 30.38119 -0.00205 0.17731 1.61705 0.28688 -0.00232 21.84235 -0.00053 -0.03209 2.07750 0.14725 1.22190 -0.45222 0.31759 -19.03618 4.76303 -13.55132 11.99985 -0.00017 -0.00046 -32.95938 -1.43676 -41.93078 25.14360 -0.01823 -0.00312 -5.97753 -7.86575 -66.89481 19.11362 -0.03289 0.01229 6.13625 -28.07678 -14.26140 4.87701 -1.04401 3.60801 -24.66890 4.20537 -9.07655 2.66500 0.00001 0.00000 0.00000 -0.00000 9.99664 2.54301 -0.00001 0.00001 0.00000 -0.00000 15.00282 9.23200 -0.30102 2.14399 -20.00239 -0.00000 -0.00000 4.22500 -0.00001 -0.00001 -25.00259 -0.00000 -0.00000 2.65399 0.00000 0.00001 -29.90793 2.50003 -4.33037 8.92000 -0.00001 0.00000 -20.00239 -0.00000 -0.00000 4.86301 0.00000 0.00000 -25.00259 -0.00000 -0.00000 2.76501 0.00000 0.00001 -29.90793 2.50003 -4.33037 8.68900 -0.12600 -2.08700 -20.00239 -0.00000 -0.00000 4.53800 0.00000 0.00000 -25.00259 -0.00000 -0.00000 2.30501 0.00000 0.00001 -29.90793 2.50003 -4.33037 8.39100 -0.81701 -3.75800 -20.00239 -0.00000 -0.00000 3.04401 -0.00001 -0.00001 -25.00259 -0.00000 -0.00000 1.97501 -0.00001 0.00001 -29.90793 2.50003 -4.33037 -1.14235 -0.26768 0.31921 11.07918 2.98022 14.81765 -10.96410 -0.15403 -0.00127 44.12414 -1.72136 37.21963 -25.83503 -0.01751 0.00526 -12.31797 -2.42137 56.24241 -18.85269 -0.02481 -0.02868 -11.00421 -1.09180 22.72396 -4.87701 -1.04400 3.60800 24.66794 4.21139 9.07654 -2.66500 0.00000 0.00000 0.00000 0.00000 -9.99674 -2.54301 0.00000 0.00001 0.00000 0.00000 -15.00295 -9.23200 -0.30100 2.14400 20.00259 0.00000 -0.00000 -4.22500 0.00000 0.00000 25.00280 0.00000 -0.00000 -2.65402 0.00000 0.00001 29.90810 2.49921 4.33044 -8.92001 0.00000 -0.00001 20.00259 0.00000 -0.00000 -4.86301 0.00000 0.00000 25.00280 0.00000 -0.00000 -2.76500 0.00000 0.00001 29.90810 2.49921 4.33044 -8.68900 -0.12600 -2.08701 20.00259 0.00000 -0.00000 -4.53801 0.00001 0.00001 25.00280 0.00000 -0.00000 -2.30500 -0.00001 0.00001 29.90810 2.49921 4.33044 -8.39101 -0.81700 -3.75800 20.00259 0.00000 -0.00000 -3.04399 -0.00001 0.00001 25.00280 0.00000 -0.00000 -1.97501 0.00000 0.00001 29.90810 2.49921 4.33044 -0.00065 0.69067 0.00027 0.00012 -0.00001 0.00002 0.00486 6.31174 0.01457 3.97927 7.77986 -6.92095 
